<?xml version="1.0" encoding="utf-8"?>
<!-- Generator: Adobe Illustrator 19.1.1, SVG Export Plug-In . SVG Version: 6.00 Build 0)  -->
<svg version="1.1" id="Layer_1" xmlns="http://www.w3.org/2000/svg" xmlns:xlink="http://www.w3.org/1999/xlink" x="0px" y="0px"
	 viewBox="0 0 406.3 54.4" style="enable-background:new 0 0 406.3 54.4;" xml:space="preserve">
<style type="text/css">
	.st0{fill:#222222;}
	.st1{display:none;fill:none;}
</style>
<symbol  id="logo" viewBox="-199 -22.4 398 44.8">
	<g id="logo_2_">
		<path class="st0" d="M-199-2v24h18V-0.8c0-4.1,1.4-7,5.6-7c4,0,5.4,2.5,5.4,6.9V22h16V-1.7c0-6.7-1.7-10.9-4-13.6
			c-4-4.8-11.2-7-18.5-7c-7.6,0-14.5,2.4-18.3,6.9C-197-13-199-9.1-199-2z"/>
		<path class="st0" d="M-149,22h16.2l12.7-18.7l0.1-0.1V22h16v-44h-16.1l-12.8,18.7l-0.1,0.1V-22h-16V22z"/>
		<path class="st0" d="M-99,22h16.6c10.4,0,22.1-3,22.1-15.4C-60.3-4.5-69.7-9-80.4-9H-81v-13h-18V22z M-80.5,2
			c3.1,0,4.5,1.5,4.5,3.5c0,2-1.5,3.5-4.5,3.5H-81V2H-80.5z"/>
		<path class="st0" d="M-57,22h18V-6h14v-16h-32V22z"/>
		<path class="st0" d="M-22-2v24h18V-0.8c0-4.1,0.9-7,5.1-7C5-7.7,6-5.2,6-0.8V22h16V-1.7c0-6.7-1.5-10.9-3.7-13.6
			c-4-4.8-11-7-18.4-7c-7.6,0-14.1,2.4-18,6.9C-20.3-13-22-9.1-22-2z"/>
		<path class="st0" d="M26.3-0.4c0,13.1,10.9,22.7,26.1,22.7c5.8,0,10.6-1.4,14.6-3.1V4.4c-4,1.5-9,2.9-13.1,2.9
			c-6.4,0-9.7-3.6-9.7-8.3c0-5.1,3.8-8.2,8.2-8.2C53.2-9.1,54-9,54-8.9V-7h-4V3h18v-21.4c-3-2-8.9-4-16.1-4
			C36.3-22.4,26.3-12.8,26.3-0.4z"/>
		<path class="st0" d="M72-0.4c0,13.1,10.6,22.7,25.7,22.7c5.8,0,11.3-1.4,14.3-3.1V4.4c-3,1.5-8.7,2.9-12.7,2.9
			c-6.4,0-9.6-3.6-9.6-8.3c0-5.1,4.1-8.2,8.4-8.2C99-9.1,100-9,100-8.9V-7h-4V3h17v-21.4c-3-2-8.6-4-15.7-4
			C81.6-22.4,72-12.8,72-0.4z"/>
		<path class="st0" d="M118,22h32V7h-14V5h11V-5h-11v-3h15v-14h-33V22z"/>
		<path class="st0" d="M155-22v44h18.2c8.4,0,14.9-2.7,19.3-6.9c3.8-3.7,6.3-8.7,6.3-15c0-6-2.3-11.3-6.2-15.1c-4.5-4.3-11-7-19.3-7
			H155z M173-8h0.3c3,0,5.3,1.2,6.7,2.7c1.2,1.3,2,3.1,2,5.2c0,2.2-0.8,4.2-2,5.5c-1.3,1.3-3.3,2.6-6.6,2.6H173V-8z"/>
	</g>
	<polygon class="st1" points="-199,22 199,22 199,-22 -199,-22 	"/>
</symbol>
<use xlink:href="#logo"  width="398" height="44.8" x="-199" y="-22.4" transform="matrix(1 0 0 -1 204.2658 28.0127)" style="overflow:visible;"/>
</svg>
